<svg width="128" height="128" version="1.1" viewBox="0 0 128 128" xmlns="http://www.w3.org/2000/svg" xmlns:cc="http://creativecommons.org/ns#" xmlns:dc="http://purl.org/dc/elements/1.1/" xmlns:rdf="http://www.w3.org/1999/02/22-rdf-syntax-ns#">
 <title>svelte-logo</title>
 <path d="m104.66 22.819c-10.4-14.885-30.94-19.297-45.792-9.835l-26.083 16.624a29.92 29.92 0 0 0-13.518 20.042 31.5 31.5 0 0 0 3.108 20.231 30 30 0 0 0-4.477 11.183 31.9 31.9 0 0 0 5.448 24.116c10.402 14.887 30.942 19.297 45.791 9.835l26.083-16.624a29.92 29.92 0 0 0 13.518-20.041 31.53 31.53 0 0 0-3.105-20.232 30 30 0 0 0 4.474-11.182 31.88 31.88 0 0 0-5.447-24.116" fill="#ff3e00"/>
 <path d="m56.317 106.58a20.72 20.72 0 0 1-22.237-8.243 19.17 19.17 0 0 1-3.277-14.503 18 18 0 0 1 0.624-2.435l0.49-1.498 1.337 0.981a33.6 33.6 0 0 0 10.203 5.098l0.97 0.294-0.09 0.968a5.85 5.85 0 0 0 1.052 3.878 6.24 6.24 0 0 0 6.695 2.485 5.8 5.8 0 0 0 1.603-0.704l26.083-16.623a5.43 5.43 0 0 0 2.45-3.631 5.8 5.8 0 0 0-0.987-4.371 6.24 6.24 0 0 0-6.698-2.487 5.7 5.7 0 0 0-1.6 0.704l-9.953 6.345a19 19 0 0 1-5.296 2.326 20.72 20.72 0 0 1-22.237-8.243 19.17 19.17 0 0 1-3.277-14.502 17.99 17.99 0 0 1 8.13-12.052l26.081-16.623a19 19 0 0 1 5.3-2.329 20.72 20.72 0 0 1 22.237 8.243 19.17 19.17 0 0 1 3.277 14.503 18 18 0 0 1-0.624 2.435l-0.49 1.498-1.337-0.98a33.6 33.6 0 0 0-10.203-5.1l-0.97-0.294 0.09-0.968a5.86 5.86 0 0 0-1.052-3.878 6.24 6.24 0 0 0-6.696-2.485 5.8 5.8 0 0 0-1.602 0.704l-26.083 16.625a5.42 5.42 0 0 0-2.449 3.63 5.79 5.79 0 0 0 0.986 4.372 6.24 6.24 0 0 0 6.698 2.486 5.8 5.8 0 0 0 1.602-0.704l9.952-6.342a19 19 0 0 1 5.295-2.328 20.72 20.72 0 0 1 22.237 8.242 19.17 19.17 0 0 1 3.277 14.503 18 18 0 0 1-8.13 12.053l-26.081 16.622a19 19 0 0 1-5.3 2.328" fill="#fff"/>
 <metadata>
  <rdf:RDF>
   <cc:Work rdf:about="">
    <dc:title>svelte-logo</dc:title>
   </cc:Work>
  </rdf:RDF>
 </metadata>
</svg>
